<svg width="25" height="25" viewBox="0 0 25 25" fill="none" xmlns="http://www.w3.org/2000/svg">
<path fill-rule="evenodd" clip-rule="evenodd" d="M7.75 10.5C7.75 9.24022 8.25045 8.03204 9.14124 7.14124C10.032 6.25045 11.2402 5.75 12.5 5.75C13.7598 5.75 14.968 6.25045 15.8588 7.14124C16.7496 8.03204 17.25 9.24022 17.25 10.5C17.25 11.7598 16.7496 12.968 15.8588 13.8588C14.968 14.7496 13.7598 15.25 12.5 15.25C11.2402 15.25 10.032 14.7496 9.14124 13.8588C8.25045 12.968 7.75 11.7598 7.75 10.5ZM12.5 7.25C11.638 7.25 10.8114 7.59241 10.2019 8.2019C9.59241 8.8114 9.25 9.63805 9.25 10.5C9.25 11.362 9.59241 12.1886 10.2019 12.7981C10.8114 13.4076 11.638 13.75 12.5 13.75C13.362 13.75 14.1886 13.4076 14.7981 12.7981C15.4076 12.1886 15.75 11.362 15.75 10.5C15.75 9.63805 15.4076 8.8114 14.7981 8.2019C14.1886 7.59241 13.362 7.25 12.5 7.25Z" fill="white"/>
<path fill-rule="evenodd" clip-rule="evenodd" d="M4.02438 9.357C4.1953 7.2838 5.1396 5.35069 6.66979 3.94147C8.19998 2.53226 10.2041 1.74999 12.2844 1.75H12.7164C14.7966 1.74999 16.8008 2.53226 18.331 3.94147C19.8612 5.35069 20.8054 7.2838 20.9764 9.357C21.1666 11.6663 20.4532 13.9593 18.9864 15.753L14.1934 21.614C13.9883 21.8648 13.73 22.067 13.4372 22.2057C13.1444 22.3445 12.8244 22.4165 12.5004 22.4165C12.1764 22.4165 11.8564 22.3445 11.5636 22.2057C11.2708 22.067 11.0125 21.8648 10.8074 21.614L6.01438 15.753C4.54749 13.9593 3.83406 11.6663 4.02438 9.357ZM12.2844 3.25C10.5809 3.25026 8.93971 3.89103 7.6867 5.04512C6.43368 6.19921 5.66041 7.78225 5.52038 9.48C5.36198 11.4019 5.95566 13.3102 7.17638 14.803L11.9694 20.665C12.0338 20.7439 12.115 20.8074 12.207 20.851C12.299 20.8947 12.3995 20.9173 12.5014 20.9173C12.6032 20.9173 12.7038 20.8947 12.7958 20.851C12.8878 20.8074 12.9689 20.7439 13.0334 20.665L17.8264 14.803C19.0464 13.3099 19.6393 11.4016 19.4804 9.48C19.3403 7.78207 18.5669 6.1989 17.3137 5.04478C16.0605 3.89066 14.4191 3.25001 12.7154 3.25H12.2844Z" fill="white"/>
</svg>
