<svg width="25" height="25" viewBox="0 0 25 25" fill="none" xmlns="http://www.w3.org/2000/svg">
<path d="M10.58 2.5C5.97 3.436 2.5 7.512 2.5 12.399C2.5 17.978 7.022 22.5 12.601 22.5C17.488 22.5 21.564 19.03 22.5 14.42" stroke="white" stroke-width="1.5" stroke-linecap="round" stroke-linejoin="round"/>
<path d="M19.438 18.5C19.8099 18.4215 20.1678 18.2877 20.5 18.103M15.188 17.841C15.7847 18.101 16.357 18.2943 16.905 18.421M11.355 15.448C11.768 15.738 12.21 16.086 12.64 16.386M3.5 14.326C3.822 14.169 4.17 13.988 4.563 13.833M6.95 13.5C7.512 13.562 8.142 13.723 8.856 14.023M18.5 8C18.5 7.60218 18.342 7.22064 18.0607 6.93934C17.7794 6.65804 17.3978 6.5 17 6.5C16.6022 6.5 16.2206 6.65804 15.9393 6.93934C15.658 7.22064 15.5 7.60218 15.5 8C15.5 8.39782 15.658 8.77936 15.9393 9.06066C16.2206 9.34196 16.6022 9.5 17 9.5C17.3978 9.5 17.7794 9.34196 18.0607 9.06066C18.342 8.77936 18.5 8.39782 18.5 8Z" stroke="white" stroke-width="1.5" stroke-linecap="round" stroke-linejoin="round"/>
<path d="M17.9884 14.12C17.7182 14.3658 17.3656 14.5014 17.0004 14.5C16.6351 14.5014 16.2826 14.3658 16.0124 14.12C13.5854 11.876 10.3334 9.368 11.9194 5.728C12.7774 3.759 14.8354 2.5 17.0004 2.5C19.1654 2.5 21.2234 3.76 22.0804 5.728C23.6654 9.364 20.4204 11.883 17.9884 14.12Z" stroke="white" stroke-width="1.5" stroke-linecap="round" stroke-linejoin="round"/>
</svg>
