<svg width="57" height="56" viewBox="0 0 57 56" fill="none" xmlns="http://www.w3.org/2000/svg">
<path d="M19.1665 47.2965V39.6665H8.39349C7.63905 39.6665 7.08527 39.3329 6.73216 38.6655C6.37905 37.9982 6.41016 37.3503 6.82549 36.7219L14.1498 25.6665H13.2515C12.5079 25.6665 11.9495 25.3352 11.5762 24.6725C11.2028 24.0099 11.244 23.3643 11.6998 22.7359L19.9342 10.9082C20.3106 10.3669 20.8325 10.0962 21.4998 10.0962C22.1672 10.0962 22.689 10.3669 23.0655 10.9082L28.4998 18.7389L33.9342 10.9082C34.3106 10.3669 34.8325 10.0962 35.4998 10.0962C36.1672 10.0962 36.689 10.3669 37.0655 10.9082L45.2998 22.7382C45.754 23.3651 45.7953 24.0099 45.4235 24.6725C45.0502 25.3352 44.4917 25.6665 43.7482 25.6665H42.8498L50.1742 36.7242C50.5895 37.3511 50.6206 37.9982 50.2675 38.6655C49.9144 39.3329 49.3606 39.6665 48.6062 39.6665H37.8332V47.1145C37.8332 47.6574 37.6543 48.107 37.2965 48.4632C36.9387 48.8194 36.4892 48.9983 35.9478 48.9999H34.8722C34.3899 48.9999 33.9855 48.8365 33.6588 48.5099C33.3306 48.1816 33.1665 47.7772 33.1665 47.2965V39.6665H23.8332V47.1145C23.8332 47.6574 23.6543 48.107 23.2965 48.4632C22.9387 48.8194 22.4892 48.9983 21.9478 48.9999H20.8722C20.3899 48.9999 19.9855 48.8365 19.6588 48.5099C19.3306 48.1816 19.1665 47.7772 19.1665 47.2965ZM36.5638 37.3332H47.8035L38.5378 23.3332H42.8498L35.4998 12.8332L29.9675 20.7432L31.3442 22.7359C31.7688 23.3643 31.803 24.0099 31.4468 24.6725C31.0906 25.3352 30.5384 25.6665 29.7902 25.6665H28.8498L36.5638 37.3332ZM9.19616 37.3332H33.8035L24.5378 23.3332H28.8498L21.4998 12.8332L14.1498 23.3332H18.4618L9.19616 37.3332ZM9.19616 37.3332H18.4618H14.1498H28.8498H24.5378H33.8035H9.19616ZM36.5638 37.3332H28.8498H33.3462H29.9675H42.8498H38.5378H47.8035H36.5638Z" fill="black"/>
</svg>
