<svg width="25" height="25" viewBox="0 0 25 25" fill="none" xmlns="http://www.w3.org/2000/svg">
<g clip-path="url(#clip0_193_1023)">
<path fill-rule="evenodd" clip-rule="evenodd" d="M12.835 22.25C13.18 22.25 14.0995 21.911 15.0655 19.979C15.5245 19.061 15.91 17.924 16.1785 16.625H9.49146C9.75996 17.924 10.1455 19.061 10.6045 19.979C11.5705 21.911 12.49 22.25 12.835 22.25ZM9.16596 14.375C9.05758 13.1273 9.05758 11.8727 9.16596 10.625H16.504C16.6123 11.8727 16.6123 13.1273 16.504 14.375H9.16596ZM18.4705 16.625C18.1345 18.461 17.581 20.087 16.8715 21.377C18.9846 20.4128 20.686 18.7284 21.6715 16.625H18.4705ZM22.405 14.375H18.76C18.8577 13.1269 18.8577 11.8731 18.76 10.625H22.4035C22.6449 11.8633 22.6449 13.1367 22.4035 14.375H22.405ZM6.90846 14.375H3.26496C3.02356 13.1367 3.02356 11.8633 3.26496 10.625H6.90996C6.81212 11.8731 6.81212 13.1269 6.90996 14.375H6.90846ZM3.99846 16.625H7.19946C7.53546 18.461 8.08896 20.087 8.79846 21.377C6.68527 20.4128 4.9839 18.7284 3.99846 16.625ZM9.49146 8.375H16.1785C15.91 7.076 15.5245 5.939 15.0655 5.021C14.0995 3.089 13.18 2.75 12.835 2.75C12.49 2.75 11.5705 3.089 10.6045 5.021C10.1455 5.939 9.75996 7.076 9.49146 8.375ZM18.4705 8.375H21.6715C20.6859 6.27169 18.9846 4.58736 16.8715 3.623C17.581 4.913 18.1345 6.539 18.4705 8.375ZM8.79996 3.623C8.09046 4.913 7.53696 6.539 7.20096 8.375H3.99846C4.9839 6.27161 6.68677 4.58725 8.79996 3.623ZM12.835 0.5C16.0176 0.5 19.0698 1.76428 21.3202 4.01472C23.5707 6.26516 24.835 9.3174 24.835 12.5C24.835 15.6826 23.5707 18.7348 21.3202 20.9853C19.0698 23.2357 16.0176 24.5 12.835 24.5C9.65236 24.5 6.60012 23.2357 4.34968 20.9853C2.09924 18.7348 0.834961 15.6826 0.834961 12.5C0.834961 9.3174 2.09924 6.26516 4.34968 4.01472C6.60012 1.76428 9.65236 0.5 12.835 0.5Z" fill="black"/>
</g>
<defs>
<clipPath id="clip0_193_1023">
<rect width="24" height="24" fill="white" transform="translate(0.834961 0.5)"/>
</clipPath>
</defs>
</svg>
