<svg width="43" height="42" viewBox="0 0 43 42" fill="none" xmlns="http://www.w3.org/2000/svg">
<path d="M0.899424 14.6629L7.61242 2.97987C7.81465 2.64231 8.0542 2.39887 8.33109 2.24953C8.60642 2.1002 8.91287 2.02553 9.25043 2.02553C9.58798 2.02553 9.89443 2.1002 10.1698 2.24953C10.4451 2.39887 10.6846 2.64231 10.8884 2.97987L17.5991 14.6652C17.7935 14.9856 17.8814 15.3053 17.8628 15.6242C17.8425 15.9446 17.7508 16.2488 17.5874 16.5365C17.4319 16.8196 17.2141 17.0475 16.9341 17.2202C16.6541 17.3929 16.3274 17.4792 15.9541 17.4792H2.54442C2.17265 17.4792 1.84676 17.3929 1.56676 17.2202C1.28676 17.0475 1.06898 16.8196 0.913424 16.5365C0.750091 16.2488 0.658313 15.9454 0.638091 15.6265C0.617869 15.3076 0.705757 14.9872 0.901757 14.6652M9.29476 41.0365C6.9972 41.0365 5.05431 40.2424 3.46609 38.6542C1.87787 37.066 1.08376 35.1293 1.08376 32.8442C1.08376 30.5264 1.87709 28.575 3.46376 26.9899C5.05354 25.4063 6.9972 24.6145 9.29476 24.6145C11.5923 24.6145 13.5352 25.4086 15.1234 26.9969C16.7116 28.5851 17.5058 30.5272 17.5058 32.8232C17.5058 35.1192 16.7116 37.0621 15.1234 38.6519C13.5352 40.2416 11.5923 41.0358 9.29476 41.0342M9.29476 38.7009C10.9359 38.7009 12.3258 38.1323 13.4644 36.9952C14.6031 35.8581 15.1724 34.4674 15.1724 32.8232C15.1724 31.179 14.6031 29.7883 13.4644 28.6512C12.3258 27.5141 10.9359 26.9455 9.29476 26.9455C7.65365 26.9455 6.26298 27.5141 5.12276 28.6512C3.98254 29.7883 3.41476 31.179 3.41942 32.8232C3.42409 34.4674 3.99265 35.8573 5.12509 36.9929C6.25754 38.1284 7.64587 38.6978 9.29476 38.7009ZM3.31676 15.1435H15.2261L9.25043 4.84653L3.31676 15.1435ZM24.3704 39.1512V26.4952C24.3704 25.9616 24.5509 25.5144 24.9118 25.1535C25.2726 24.7926 25.7206 24.6122 26.2558 24.6122H38.9094C39.443 24.6122 39.891 24.7926 40.2534 25.1535C40.6159 25.5144 40.7963 25.9624 40.7948 26.4975V39.1512C40.7948 39.6848 40.6143 40.132 40.2534 40.4929C39.8925 40.8538 39.4445 41.0342 38.9094 41.0342H26.2558C25.7222 41.0342 25.275 40.8538 24.9141 40.4929C24.5532 40.132 24.372 39.6848 24.3704 39.1512ZM26.7038 38.7009H38.4614V26.9455H26.7038V38.7009ZM31.3798 16.5085L29.3661 14.8705C27.3408 13.2419 25.7401 11.7244 24.5641 10.3182C23.3881 8.91198 22.8001 7.39531 22.8001 5.7682C22.8001 4.37753 23.2559 3.22953 24.1674 2.3242C25.0774 1.41731 26.2371 0.963867 27.6464 0.963867C28.5766 0.963867 29.4462 1.19176 30.2551 1.64753C31.064 2.10331 31.8402 2.78931 32.5838 3.70553C33.3258 2.82042 34.116 2.1422 34.9544 1.67087C35.7944 1.19953 36.664 0.963867 37.5631 0.963867C38.932 0.963867 40.0745 1.44065 40.9908 2.3942C41.907 3.34931 42.3651 4.51909 42.3651 5.90353C42.3651 7.49798 41.7771 8.98431 40.6011 10.3625C39.4251 11.7408 37.8244 13.2434 35.7991 14.8705L33.7854 16.5085C33.4463 16.8072 33.045 16.9565 32.5814 16.9565C32.1179 16.9565 31.7173 16.8072 31.3798 16.5085ZM32.5814 14.4482C35.2928 12.3544 37.2123 10.6565 38.3401 9.35453C39.4679 8.05253 40.0318 6.89676 40.0318 5.8872C40.0318 5.14209 39.7961 4.52376 39.3248 4.0322C38.8534 3.5422 38.26 3.2972 37.5444 3.2972C37.0435 3.2972 36.5535 3.44887 36.0744 3.7522C35.5984 4.05553 34.9389 4.62953 34.0958 5.4742L32.5814 6.9582L31.0694 5.4742C30.1968 4.59998 29.531 4.01898 29.0721 3.7312C28.6116 3.44187 28.1271 3.2972 27.6184 3.2972C26.8749 3.2972 26.2752 3.52042 25.8194 3.96687C25.3636 4.41331 25.135 5.02309 25.1334 5.7962C25.1334 6.86798 25.6973 8.05409 26.8251 9.35453C27.9529 10.655 29.8716 12.3529 32.5814 14.4482Z" fill="black"/>
</svg>
