<svg width="43" height="44" viewBox="0 0 43 44" fill="none" xmlns="http://www.w3.org/2000/svg">
<path d="M0.00282415 38.3294V18.4375C0.00282415 17.7544 0.125153 17.0913 0.369814 16.4483C0.616356 15.8074 0.944765 15.2571 1.35504 14.7975L10.9081 4.09572C11.3635 3.58551 11.8717 3.21339 12.4325 2.97937C12.9952 2.74324 13.557 2.62517 14.1178 2.62517C14.6787 2.62517 15.2395 2.74324 15.8004 2.97937C16.3612 3.2155 16.8693 3.58762 17.3248 4.09572L26.8806 14.8007C27.289 15.2582 27.6165 15.8084 27.8631 16.4515C28.1096 17.0945 28.2319 17.7565 28.23 18.4375V38.3294C28.23 39.7462 27.7868 40.9521 26.9004 41.9472C26.0102 42.9423 24.9337 43.4399 23.6709 43.4399H4.56198C3.29915 43.4399 2.22359 42.9423 1.33528 41.9472C0.445094 40.9521 0 39.7462 0 38.3294M4.56198 40.2743H11.9441V35.4104C11.9441 34.7568 12.1512 34.1876 12.5652 33.7027C12.9792 33.2178 13.4968 32.9753 14.1178 32.9753C14.7013 32.9753 15.2085 33.2178 15.6394 33.7027C16.0704 34.1876 16.2869 34.7568 16.2887 35.4104V40.2743H23.6709C24.179 40.2743 24.5959 40.0919 24.9215 39.7272C25.2471 39.3624 25.4099 38.8965 25.4099 38.3294V18.3742C25.4099 18.1318 25.3732 17.8988 25.2998 17.6753C25.2282 17.4519 25.1022 17.2389 24.9215 17.0365L15.3656 6.33158C15.04 5.96684 14.6241 5.78447 14.1178 5.78447C13.6097 5.78447 13.1928 5.96684 12.8673 6.33158L3.31421 17.0365C3.13354 17.2389 3.0065 17.4519 2.9331 17.6753C2.8597 17.8988 2.823 18.1318 2.823 18.3742V38.3294C2.823 38.8965 2.98674 39.3624 3.31421 39.7272C3.63791 40.0919 4.05383 40.2743 4.56198 40.2743ZM32.792 41.9188V14.9809C32.792 14.7385 32.7553 14.5055 32.6819 14.282C32.6085 14.0585 32.4824 13.8456 32.3036 13.6432L22.9821 3.20074C22.5229 2.68632 22.4099 2.10759 22.6433 1.46455C22.8804 0.821518 23.3265 0.5 23.9814 0.5C24.1771 0.5 24.3635 0.542166 24.5404 0.626498C24.7173 0.710831 24.8697 0.822571 24.9977 0.961719L34.2628 11.3441C34.6731 11.8016 35.0005 12.3519 35.2452 12.9949C35.4899 13.6379 35.6131 14.2999 35.615 14.9809V41.9156C35.615 42.3668 35.4805 42.7431 35.2113 43.0446C34.9422 43.3461 34.6063 43.4968 34.2035 43.4968C33.8008 43.4968 33.4648 43.3461 33.1957 43.0446C32.9266 42.7431 32.792 42.3668 32.792 41.9156M40.1742 41.9156V11.5275C40.1742 11.2851 40.1384 11.0531 40.0669 10.8318C39.9954 10.6104 39.8683 10.3964 39.6858 10.1898L33.5034 3.26399C33.0442 2.74957 32.9313 2.16029 33.1647 1.49618C33.398 0.832059 33.8441 0.501054 34.5028 0.503162C34.6985 0.503162 34.8848 0.54533 35.0617 0.629662C35.2386 0.711886 35.3911 0.823626 35.519 0.964883L41.7014 7.89068C42.1098 8.35029 42.4279 8.90161 42.6556 9.54464C42.8833 10.1877 42.9981 10.8486 43 11.5275V41.9188C43 42.3699 42.8645 42.7463 42.5935 43.0478C42.3244 43.3493 41.9894 43.5 41.5885 43.5C41.1857 43.5 40.8498 43.3493 40.5807 43.0478C40.3116 42.7463 40.1761 42.3699 40.1742 41.9188M4.56198 40.2743H25.4099H2.82583H4.56198ZM14.1178 23.7346C13.5344 23.7346 13.0263 23.4922 12.5934 23.0072C12.1606 22.5223 11.9441 21.9531 11.9441 21.2995C11.9441 20.6459 12.1606 20.0767 12.5934 19.5918C13.0263 19.1069 13.5344 18.8644 14.1178 18.8644C14.7013 18.8644 15.2085 19.1069 15.6394 19.5918C16.0704 20.0767 16.2869 20.6459 16.2887 21.2995C16.2906 21.9531 16.0742 22.5223 15.6394 23.0072C15.2047 23.4922 14.6966 23.7346 14.115 23.7346" fill="black"/>
</svg>
