<svg width="56" height="56" viewBox="0 0 56 56" fill="none" xmlns="http://www.w3.org/2000/svg">
<path d="M24.5 36.524V37.4582L25.2773 36.94L38.0653 28.416L38.6895 28L38.0653 27.584L25.2773 19.06L24.5 18.5418V19.476V36.524ZM25.2777 15.4514L25.3866 15.524L40.9786 25.92C41.321 26.1483 41.6017 26.4576 41.7959 26.8205C41.9901 27.1833 42.0917 27.5885 42.0917 28C42.0917 28.4115 41.9901 28.8167 41.7959 29.1795C41.6017 29.5424 41.321 29.8517 40.9786 30.08L25.3867 40.476C25.3867 40.476 25.3866 40.476 25.3866 40.476C25.0101 40.7269 24.5726 40.871 24.1207 40.8929C23.6687 40.9147 23.2193 40.8135 22.8204 40.6C22.4215 40.3865 22.0879 40.0687 21.8554 39.6806C21.6229 39.2924 21.5 38.8484 21.5 38.396V17.6C21.5 17.6 21.5 17.6 21.5 17.6C21.5 17.1475 21.6229 16.7036 21.8554 16.3154C22.0879 15.9273 22.4215 15.6095 22.8204 15.396C23.2193 15.1825 23.6687 15.0813 24.1207 15.1031C24.5297 15.1229 24.9269 15.2428 25.2777 15.4514ZM28 0.5C35.2935 0.5 42.2882 3.39731 47.4454 8.55456C52.6027 13.7118 55.5 20.7065 55.5 28C55.5 35.2935 52.6027 42.2882 47.4454 47.4454C42.2882 52.6027 35.2935 55.5 28 55.5C20.7065 55.5 13.7118 52.6027 8.55456 47.4454C3.39731 42.2882 0.5 35.2935 0.5 28C0.5 20.7065 3.39731 13.7118 8.55456 8.55456C13.7118 3.39731 20.7065 0.5 28 0.5ZM28 52.5C34.4978 52.5 40.7295 49.9188 45.3241 45.3241C49.9188 40.7295 52.5 34.4978 52.5 28C52.5 21.5022 49.9188 15.2705 45.3241 10.6759C40.7295 6.08124 34.4978 3.5 28 3.5C21.5022 3.5 15.2705 6.08124 10.6759 10.6759C6.08124 15.2705 3.5 21.5022 3.5 28C3.5 34.4978 6.08124 40.7295 10.6759 45.3241C15.2705 49.9188 21.5022 52.5 28 52.5Z" fill="white"/>
<path d="M24.5 36.524V37.4582L25.2773 36.94L38.0653 28.416L38.6895 28L38.0653 27.584L25.2773 19.06L24.5 18.5418V19.476V36.524ZM25.2777 15.4514L25.3866 15.524L40.9786 25.92C41.321 26.1483 41.6017 26.4576 41.7959 26.8205C41.9901 27.1833 42.0917 27.5885 42.0917 28C42.0917 28.4115 41.9901 28.8167 41.7959 29.1795C41.6017 29.5424 41.321 29.8517 40.9786 30.08L25.3867 40.476C25.3867 40.476 25.3866 40.476 25.3866 40.476C25.0101 40.7269 24.5726 40.871 24.1207 40.8929C23.6687 40.9147 23.2193 40.8135 22.8204 40.6C22.4215 40.3865 22.0879 40.0687 21.8554 39.6806C21.6229 39.2924 21.5 38.8484 21.5 38.396V17.6C21.5 17.6 21.5 17.6 21.5 17.6C21.5 17.1475 21.6229 16.7036 21.8554 16.3154C22.0879 15.9273 22.4215 15.6095 22.8204 15.396C23.2193 15.1825 23.6687 15.0813 24.1207 15.1031C24.5297 15.1229 24.9269 15.2428 25.2777 15.4514ZM28 0.5C35.2935 0.5 42.2882 3.39731 47.4454 8.55456C52.6027 13.7118 55.5 20.7065 55.5 28C55.5 35.2935 52.6027 42.2882 47.4454 47.4454C42.2882 52.6027 35.2935 55.5 28 55.5C20.7065 55.5 13.7118 52.6027 8.55456 47.4454C3.39731 42.2882 0.5 35.2935 0.5 28C0.5 20.7065 3.39731 13.7118 8.55456 8.55456C13.7118 3.39731 20.7065 0.5 28 0.5ZM28 52.5C34.4978 52.5 40.7295 49.9188 45.3241 45.3241C49.9188 40.7295 52.5 34.4978 52.5 28C52.5 21.5022 49.9188 15.2705 45.3241 10.6759C40.7295 6.08124 34.4978 3.5 28 3.5C21.5022 3.5 15.2705 6.08124 10.6759 10.6759C6.08124 15.2705 3.5 21.5022 3.5 28C3.5 34.4978 6.08124 40.7295 10.6759 45.3241C15.2705 49.9188 21.5022 52.5 28 52.5Z" stroke="white"/>
<path d="M24.5 36.524V37.4582L25.2773 36.94L38.0653 28.416L38.6895 28L38.0653 27.584L25.2773 19.06L24.5 18.5418V19.476V36.524ZM25.2777 15.4514L25.3866 15.524L40.9786 25.92C41.321 26.1483 41.6017 26.4576 41.7959 26.8205C41.9901 27.1833 42.0917 27.5885 42.0917 28C42.0917 28.4115 41.9901 28.8167 41.7959 29.1795C41.6017 29.5424 41.321 29.8517 40.9786 30.08L25.3867 40.476C25.3867 40.476 25.3866 40.476 25.3866 40.476C25.0101 40.7269 24.5726 40.871 24.1207 40.8929C23.6687 40.9147 23.2193 40.8135 22.8204 40.6C22.4215 40.3865 22.0879 40.0687 21.8554 39.6806C21.6229 39.2924 21.5 38.8484 21.5 38.396V17.6C21.5 17.6 21.5 17.6 21.5 17.6C21.5 17.1475 21.6229 16.7036 21.8554 16.3154C22.0879 15.9273 22.4215 15.6095 22.8204 15.396C23.2193 15.1825 23.6687 15.0813 24.1207 15.1031C24.5297 15.1229 24.9269 15.2428 25.2777 15.4514ZM28 0.5C35.2935 0.5 42.2882 3.39731 47.4454 8.55456C52.6027 13.7118 55.5 20.7065 55.5 28C55.5 35.2935 52.6027 42.2882 47.4454 47.4454C42.2882 52.6027 35.2935 55.5 28 55.5C20.7065 55.5 13.7118 52.6027 8.55456 47.4454C3.39731 42.2882 0.5 35.2935 0.5 28C0.5 20.7065 3.39731 13.7118 8.55456 8.55456C13.7118 3.39731 20.7065 0.5 28 0.5ZM28 52.5C34.4978 52.5 40.7295 49.9188 45.3241 45.3241C49.9188 40.7295 52.5 34.4978 52.5 28C52.5 21.5022 49.9188 15.2705 45.3241 10.6759C40.7295 6.08124 34.4978 3.5 28 3.5C21.5022 3.5 15.2705 6.08124 10.6759 10.6759C6.08124 15.2705 3.5 21.5022 3.5 28C3.5 34.4978 6.08124 40.7295 10.6759 45.3241C15.2705 49.9188 21.5022 52.5 28 52.5Z" stroke="white"/>
<path d="M24.5 36.524V37.4582L25.2773 36.94L38.0653 28.416L38.6895 28L38.0653 27.584L25.2773 19.06L24.5 18.5418V19.476V36.524ZM25.2777 15.4514L25.3866 15.524L40.9786 25.92C41.321 26.1483 41.6017 26.4576 41.7959 26.8205C41.9901 27.1833 42.0917 27.5885 42.0917 28C42.0917 28.4115 41.9901 28.8167 41.7959 29.1795C41.6017 29.5424 41.321 29.8517 40.9786 30.08L25.3867 40.476C25.3867 40.476 25.3866 40.476 25.3866 40.476C25.0101 40.7269 24.5726 40.871 24.1207 40.8929C23.6687 40.9147 23.2193 40.8135 22.8204 40.6C22.4215 40.3865 22.0879 40.0687 21.8554 39.6806C21.6229 39.2924 21.5 38.8484 21.5 38.396V17.6C21.5 17.6 21.5 17.6 21.5 17.6C21.5 17.1475 21.6229 16.7036 21.8554 16.3154C22.0879 15.9273 22.4215 15.6095 22.8204 15.396C23.2193 15.1825 23.6687 15.0813 24.1207 15.1031C24.5297 15.1229 24.9269 15.2428 25.2777 15.4514ZM28 0.5C35.2935 0.5 42.2882 3.39731 47.4454 8.55456C52.6027 13.7118 55.5 20.7065 55.5 28C55.5 35.2935 52.6027 42.2882 47.4454 47.4454C42.2882 52.6027 35.2935 55.5 28 55.5C20.7065 55.5 13.7118 52.6027 8.55456 47.4454C3.39731 42.2882 0.5 35.2935 0.5 28C0.5 20.7065 3.39731 13.7118 8.55456 8.55456C13.7118 3.39731 20.7065 0.5 28 0.5ZM28 52.5C34.4978 52.5 40.7295 49.9188 45.3241 45.3241C49.9188 40.7295 52.5 34.4978 52.5 28C52.5 21.5022 49.9188 15.2705 45.3241 10.6759C40.7295 6.08124 34.4978 3.5 28 3.5C21.5022 3.5 15.2705 6.08124 10.6759 10.6759C6.08124 15.2705 3.5 21.5022 3.5 28C3.5 34.4978 6.08124 40.7295 10.6759 45.3241C15.2705 49.9188 21.5022 52.5 28 52.5Z" stroke="white"/>
</svg>
