<svg width="45" height="48" viewBox="0 0 45 48" fill="none" xmlns="http://www.w3.org/2000/svg">
<path d="M16.8965 1.28232C17.6673 0.589699 18.6671 0.206543 19.7034 0.206543C20.7398 0.206543 21.7396 0.589699 22.5105 1.28232L37.9104 15.1199C38.3483 15.5137 38.6985 15.9951 38.9382 16.533C39.178 17.0708 39.3019 17.6531 39.3021 18.2419V22.7219C38.3756 22.5749 37.4332 22.558 36.502 22.6715V18.2419C36.5016 18.0459 36.46 17.8521 36.38 17.6732C36.2999 17.4942 36.1831 17.3341 36.0373 17.2031L20.6372 3.36552C20.3803 3.13491 20.0473 3.00735 19.7021 3.00735C19.3568 3.00735 19.0238 3.13491 18.7669 3.36552L3.36685 17.2031C3.22096 17.3341 3.1042 17.4942 3.02414 17.6732C2.94407 17.8521 2.90247 18.0459 2.90205 18.2419V37.9959C2.90205 38.3672 3.04955 38.7233 3.3121 38.9859C3.57465 39.2484 3.93075 39.3959 4.30205 39.3959H19.5117C19.6106 39.5042 19.7132 39.6115 19.8197 39.7179L22.2752 42.1959H4.30205C3.18814 42.1959 2.11986 41.7534 1.3322 40.9658C0.54455 40.1781 0.102051 39.1098 0.102051 37.9959V18.2419C0.102051 17.0519 0.606051 15.9179 1.49645 15.1199L16.8965 1.28232ZM42.7993 27.5155C42.1358 26.8432 41.3454 26.3093 40.474 25.9449C39.6026 25.5805 38.6674 25.3929 37.7229 25.3929C36.7783 25.3929 35.8431 25.5805 34.9717 25.9449C34.1003 26.3093 33.3099 26.8432 32.6465 27.5155L32.3021 27.8599L31.9576 27.5155C31.2401 26.789 30.3751 26.2249 29.421 25.8611C28.4668 25.4974 27.4458 25.3425 26.4267 25.407C25.4076 25.4715 24.4142 25.7538 23.5136 26.235C22.6129 26.7161 21.8259 27.3848 21.2057 28.1959C20.1355 29.5914 19.6066 31.327 19.7167 33.0822C19.8269 34.8373 20.5686 36.4932 21.8049 37.7439L31.4088 47.4235C31.5259 47.5408 31.6649 47.6338 31.8179 47.6973C31.9709 47.7607 32.135 47.7934 32.3007 47.7934C32.4663 47.7934 32.6304 47.7607 32.7834 47.6973C32.9364 47.6338 33.0754 47.5408 33.1925 47.4235L42.7993 37.7439C44.1441 36.3815 44.8982 34.5441 44.8982 32.6297C44.8982 30.7153 44.1441 28.878 42.7993 27.5155Z" fill="black"/>
</svg>
