<svg width="40" height="40" viewBox="0 0 40 40" fill="none" xmlns="http://www.w3.org/2000/svg">
<path d="M18.0541 11.2074L17.9794 11.1577C17.7496 11.0217 17.4897 10.9436 17.2222 10.9306C16.9252 10.9163 16.6298 10.9828 16.3677 11.1231C16.1055 11.2634 15.8864 11.4722 15.7335 11.7273C15.5807 11.9824 15.5 12.2741 15.5 12.5714L18.0541 11.2074ZM18.0541 11.2074L29.1912 18.6331M18.0541 11.2074L29.1912 18.6331M29.1912 18.6331C29.4162 18.7832 29.6007 18.9864 29.7283 19.2249M29.1912 18.6331L29.7283 19.2249M29.7283 19.2249C29.8559 19.4633 29.9226 19.7296 29.9226 20M29.7283 19.2249L29.9226 20M29.9226 20C29.9226 20.2704 29.8559 20.5367 29.7283 20.7751M29.9226 20L29.7283 20.7751M29.7283 20.7751C29.6007 21.0136 29.4162 21.2168 29.1912 21.3669M29.7283 20.7751L29.1912 21.3669M29.1912 21.3669L18.0541 28.7925M29.1912 21.3669L18.0541 28.7925M18.0541 28.7925C17.8067 28.9575 17.5192 29.0521 17.2222 29.0665M18.0541 28.7925L17.2222 29.0665M17.2222 29.0665C16.9252 29.0809 16.6298 29.0143 16.3677 28.874M17.2222 29.0665L16.3677 28.874M16.3677 28.874C16.1055 28.7337 15.8864 28.5249 15.7335 28.2698M16.3677 28.874L15.7335 28.2698M15.7335 28.2698C15.5807 28.0148 15.5 27.723 15.5 27.4257L15.7335 28.2698ZM17.3571 26.0886V27.0227L18.1345 26.5046L27.2687 20.416L27.8929 20L27.2687 19.584L18.1345 13.4954L17.3571 12.9773V13.9114V26.0886ZM20 0.5C25.1717 0.5 30.1316 2.55446 33.7886 6.21142C37.4455 9.86838 39.5 14.8283 39.5 20C39.5 25.1717 37.4455 30.1316 33.7886 33.7886C30.1316 37.4455 25.1717 39.5 20 39.5C14.8283 39.5 9.86838 37.4455 6.21142 33.7886C2.55446 30.1316 0.5 25.1717 0.5 20C0.5 14.8283 2.55446 9.86838 6.21142 6.21142C9.86838 2.55446 14.8283 0.5 20 0.5ZM20 37.6429C24.6792 37.6429 29.1667 35.7841 32.4754 32.4754C35.7841 29.1667 37.6429 24.6792 37.6429 20C37.6429 15.3208 35.7841 10.8333 32.4754 7.52462C29.1667 4.21594 24.6792 2.35714 20 2.35714C15.3208 2.35714 10.8333 4.21594 7.52462 7.52462C4.21594 10.8333 2.35714 15.3208 2.35714 20C2.35714 24.6792 4.21594 29.1667 7.52462 32.4754C10.8333 35.7841 15.3208 37.6429 20 37.6429ZM15.5 27.4257V12.5715V27.4257Z" fill="white"/>
<path d="M18.0541 11.2074L17.9794 11.1577C17.7496 11.0217 17.4897 10.9436 17.2222 10.9306C16.9252 10.9163 16.6298 10.9828 16.3677 11.1231C16.1055 11.2634 15.8864 11.4722 15.7335 11.7273C15.5807 11.9824 15.5 12.2741 15.5 12.5714L18.0541 11.2074ZM18.0541 11.2074L29.1912 18.6331M18.0541 11.2074L29.1912 18.6331M29.1912 18.6331C29.4162 18.7832 29.6007 18.9864 29.7283 19.2249M29.1912 18.6331L29.7283 19.2249M29.7283 19.2249C29.8559 19.4633 29.9226 19.7296 29.9226 20M29.7283 19.2249L29.9226 20M29.9226 20C29.9226 20.2704 29.8559 20.5367 29.7283 20.7751M29.9226 20L29.7283 20.7751M29.7283 20.7751C29.6007 21.0136 29.4162 21.2168 29.1912 21.3669M29.7283 20.7751L29.1912 21.3669M29.1912 21.3669L18.0541 28.7925M29.1912 21.3669L18.0541 28.7925M18.0541 28.7925C17.8067 28.9575 17.5192 29.0521 17.2222 29.0665M18.0541 28.7925L17.2222 29.0665M17.2222 29.0665C16.9252 29.0809 16.6298 29.0143 16.3677 28.874M17.2222 29.0665L16.3677 28.874M16.3677 28.874C16.1055 28.7337 15.8864 28.5249 15.7335 28.2698M16.3677 28.874L15.7335 28.2698M15.7335 28.2698C15.5807 28.0148 15.5 27.723 15.5 27.4257L15.7335 28.2698ZM17.3571 26.0886V27.0227L18.1345 26.5046L27.2687 20.416L27.8929 20L27.2687 19.584L18.1345 13.4954L17.3571 12.9773V13.9114V26.0886ZM20 0.5C25.1717 0.5 30.1316 2.55446 33.7886 6.21142C37.4455 9.86838 39.5 14.8283 39.5 20C39.5 25.1717 37.4455 30.1316 33.7886 33.7886C30.1316 37.4455 25.1717 39.5 20 39.5C14.8283 39.5 9.86838 37.4455 6.21142 33.7886C2.55446 30.1316 0.5 25.1717 0.5 20C0.5 14.8283 2.55446 9.86838 6.21142 6.21142C9.86838 2.55446 14.8283 0.5 20 0.5ZM20 37.6429C24.6792 37.6429 29.1667 35.7841 32.4754 32.4754C35.7841 29.1667 37.6429 24.6792 37.6429 20C37.6429 15.3208 35.7841 10.8333 32.4754 7.52462C29.1667 4.21594 24.6792 2.35714 20 2.35714C15.3208 2.35714 10.8333 4.21594 7.52462 7.52462C4.21594 10.8333 2.35714 15.3208 2.35714 20C2.35714 24.6792 4.21594 29.1667 7.52462 32.4754C10.8333 35.7841 15.3208 37.6429 20 37.6429ZM15.5 27.4257V12.5715V27.4257Z" stroke="white"/>
<path d="M18.0541 11.2074L17.9794 11.1577C17.7496 11.0217 17.4897 10.9436 17.2222 10.9306C16.9252 10.9163 16.6298 10.9828 16.3677 11.1231C16.1055 11.2634 15.8864 11.4722 15.7335 11.7273C15.5807 11.9824 15.5 12.2741 15.5 12.5714L18.0541 11.2074ZM18.0541 11.2074L29.1912 18.6331M18.0541 11.2074L29.1912 18.6331M29.1912 18.6331C29.4162 18.7832 29.6007 18.9864 29.7283 19.2249M29.1912 18.6331L29.7283 19.2249M29.7283 19.2249C29.8559 19.4633 29.9226 19.7296 29.9226 20M29.7283 19.2249L29.9226 20M29.9226 20C29.9226 20.2704 29.8559 20.5367 29.7283 20.7751M29.9226 20L29.7283 20.7751M29.7283 20.7751C29.6007 21.0136 29.4162 21.2168 29.1912 21.3669M29.7283 20.7751L29.1912 21.3669M29.1912 21.3669L18.0541 28.7925M29.1912 21.3669L18.0541 28.7925M18.0541 28.7925C17.8067 28.9575 17.5192 29.0521 17.2222 29.0665M18.0541 28.7925L17.2222 29.0665M17.2222 29.0665C16.9252 29.0809 16.6298 29.0143 16.3677 28.874M17.2222 29.0665L16.3677 28.874M16.3677 28.874C16.1055 28.7337 15.8864 28.5249 15.7335 28.2698M16.3677 28.874L15.7335 28.2698M15.7335 28.2698C15.5807 28.0148 15.5 27.723 15.5 27.4257L15.7335 28.2698ZM17.3571 26.0886V27.0227L18.1345 26.5046L27.2687 20.416L27.8929 20L27.2687 19.584L18.1345 13.4954L17.3571 12.9773V13.9114V26.0886ZM20 0.5C25.1717 0.5 30.1316 2.55446 33.7886 6.21142C37.4455 9.86838 39.5 14.8283 39.5 20C39.5 25.1717 37.4455 30.1316 33.7886 33.7886C30.1316 37.4455 25.1717 39.5 20 39.5C14.8283 39.5 9.86838 37.4455 6.21142 33.7886C2.55446 30.1316 0.5 25.1717 0.5 20C0.5 14.8283 2.55446 9.86838 6.21142 6.21142C9.86838 2.55446 14.8283 0.5 20 0.5ZM20 37.6429C24.6792 37.6429 29.1667 35.7841 32.4754 32.4754C35.7841 29.1667 37.6429 24.6792 37.6429 20C37.6429 15.3208 35.7841 10.8333 32.4754 7.52462C29.1667 4.21594 24.6792 2.35714 20 2.35714C15.3208 2.35714 10.8333 4.21594 7.52462 7.52462C4.21594 10.8333 2.35714 15.3208 2.35714 20C2.35714 24.6792 4.21594 29.1667 7.52462 32.4754C10.8333 35.7841 15.3208 37.6429 20 37.6429ZM15.5 27.4257V12.5715V27.4257Z" stroke="white"/>
<path d="M18.0541 11.2074L17.9794 11.1577C17.7496 11.0217 17.4897 10.9436 17.2222 10.9306C16.9252 10.9163 16.6298 10.9828 16.3677 11.1231C16.1055 11.2634 15.8864 11.4722 15.7335 11.7273C15.5807 11.9824 15.5 12.2741 15.5 12.5714L18.0541 11.2074ZM18.0541 11.2074L29.1912 18.6331M18.0541 11.2074L29.1912 18.6331M29.1912 18.6331C29.4162 18.7832 29.6007 18.9864 29.7283 19.2249M29.1912 18.6331L29.7283 19.2249M29.7283 19.2249C29.8559 19.4633 29.9226 19.7296 29.9226 20M29.7283 19.2249L29.9226 20M29.9226 20C29.9226 20.2704 29.8559 20.5367 29.7283 20.7751M29.9226 20L29.7283 20.7751M29.7283 20.7751C29.6007 21.0136 29.4162 21.2168 29.1912 21.3669M29.7283 20.7751L29.1912 21.3669M29.1912 21.3669L18.0541 28.7925M29.1912 21.3669L18.0541 28.7925M18.0541 28.7925C17.8067 28.9575 17.5192 29.0521 17.2222 29.0665M18.0541 28.7925L17.2222 29.0665M17.2222 29.0665C16.9252 29.0809 16.6298 29.0143 16.3677 28.874M17.2222 29.0665L16.3677 28.874M16.3677 28.874C16.1055 28.7337 15.8864 28.5249 15.7335 28.2698M16.3677 28.874L15.7335 28.2698M15.7335 28.2698C15.5807 28.0148 15.5 27.723 15.5 27.4257L15.7335 28.2698ZM17.3571 26.0886V27.0227L18.1345 26.5046L27.2687 20.416L27.8929 20L27.2687 19.584L18.1345 13.4954L17.3571 12.9773V13.9114V26.0886ZM20 0.5C25.1717 0.5 30.1316 2.55446 33.7886 6.21142C37.4455 9.86838 39.5 14.8283 39.5 20C39.5 25.1717 37.4455 30.1316 33.7886 33.7886C30.1316 37.4455 25.1717 39.5 20 39.5C14.8283 39.5 9.86838 37.4455 6.21142 33.7886C2.55446 30.1316 0.5 25.1717 0.5 20C0.5 14.8283 2.55446 9.86838 6.21142 6.21142C9.86838 2.55446 14.8283 0.5 20 0.5ZM20 37.6429C24.6792 37.6429 29.1667 35.7841 32.4754 32.4754C35.7841 29.1667 37.6429 24.6792 37.6429 20C37.6429 15.3208 35.7841 10.8333 32.4754 7.52462C29.1667 4.21594 24.6792 2.35714 20 2.35714C15.3208 2.35714 10.8333 4.21594 7.52462 7.52462C4.21594 10.8333 2.35714 15.3208 2.35714 20C2.35714 24.6792 4.21594 29.1667 7.52462 32.4754C10.8333 35.7841 15.3208 37.6429 20 37.6429ZM15.5 27.4257V12.5715V27.4257Z" stroke="white"/>
</svg>
