<svg width="49" height="50" viewBox="0 0 49 50" fill="none" xmlns="http://www.w3.org/2000/svg">
<path d="M47.25 46.4375H41.5625V3.5625H43.75C44.0981 3.5625 44.4319 3.42422 44.6781 3.17808C44.9242 2.93194 45.0625 2.5981 45.0625 2.25C45.0625 1.9019 44.9242 1.56806 44.6781 1.32192C44.4319 1.07578 44.0981 0.9375 43.75 0.9375H5.25C4.9019 0.9375 4.56806 1.07578 4.32192 1.32192C4.07578 1.56806 3.9375 1.9019 3.9375 2.25C3.9375 2.5981 4.07578 2.93194 4.32192 3.17808C4.56806 3.42422 4.9019 3.5625 5.25 3.5625H7.4375V46.4375H1.75C1.4019 46.4375 1.06806 46.5758 0.821922 46.8219C0.575781 47.0681 0.4375 47.4019 0.4375 47.75C0.4375 48.0981 0.575781 48.4319 0.821922 48.6781C1.06806 48.9242 1.4019 49.0625 1.75 49.0625H47.25C47.5981 49.0625 47.9319 48.9242 48.1781 48.6781C48.4242 48.4319 48.5625 48.0981 48.5625 47.75C48.5625 47.4019 48.4242 47.0681 48.1781 46.8219C47.9319 46.5758 47.5981 46.4375 47.25 46.4375ZM10.0625 3.5625H38.9375V46.4375H31.0625V37.25C31.0625 36.9019 30.9242 36.5681 30.6781 36.3219C30.4319 36.0758 30.0981 35.9375 29.75 35.9375H19.25C18.9019 35.9375 18.5681 36.0758 18.3219 36.3219C18.0758 36.5681 17.9375 36.9019 17.9375 37.25V46.4375H10.0625V3.5625ZM28.4375 46.4375H20.5625V38.5625H28.4375V46.4375ZM16.1875 11C16.1875 10.6519 16.3258 10.3181 16.5719 10.0719C16.8181 9.82578 17.1519 9.6875 17.5 9.6875H21C21.3481 9.6875 21.6819 9.82578 21.9281 10.0719C22.1742 10.3181 22.3125 10.6519 22.3125 11C22.3125 11.3481 22.1742 11.6819 21.9281 11.9281C21.6819 12.1742 21.3481 12.3125 21 12.3125H17.5C17.1519 12.3125 16.8181 12.1742 16.5719 11.9281C16.3258 11.6819 16.1875 11.3481 16.1875 11ZM26.6875 11C26.6875 10.6519 26.8258 10.3181 27.0719 10.0719C27.3181 9.82578 27.6519 9.6875 28 9.6875H31.5C31.8481 9.6875 32.1819 9.82578 32.4281 10.0719C32.6742 10.3181 32.8125 10.6519 32.8125 11C32.8125 11.3481 32.6742 11.6819 32.4281 11.9281C32.1819 12.1742 31.8481 12.3125 31.5 12.3125H28C27.6519 12.3125 27.3181 12.1742 27.0719 11.9281C26.8258 11.6819 26.6875 11.3481 26.6875 11ZM16.1875 19.75C16.1875 19.4019 16.3258 19.0681 16.5719 18.8219C16.8181 18.5758 17.1519 18.4375 17.5 18.4375H21C21.3481 18.4375 21.6819 18.5758 21.9281 18.8219C22.1742 19.0681 22.3125 19.4019 22.3125 19.75C22.3125 20.0981 22.1742 20.4319 21.9281 20.6781C21.6819 20.9242 21.3481 21.0625 21 21.0625H17.5C17.1519 21.0625 16.8181 20.9242 16.5719 20.6781C16.3258 20.4319 16.1875 20.0981 16.1875 19.75ZM26.6875 19.75C26.6875 19.4019 26.8258 19.0681 27.0719 18.8219C27.3181 18.5758 27.6519 18.4375 28 18.4375H31.5C31.8481 18.4375 32.1819 18.5758 32.4281 18.8219C32.6742 19.0681 32.8125 19.4019 32.8125 19.75C32.8125 20.0981 32.6742 20.4319 32.4281 20.6781C32.1819 20.9242 31.8481 21.0625 31.5 21.0625H28C27.6519 21.0625 27.3181 20.9242 27.0719 20.6781C26.8258 20.4319 26.6875 20.0981 26.6875 19.75ZM17.5 29.8125C17.1519 29.8125 16.8181 29.6742 16.5719 29.4281C16.3258 29.1819 16.1875 28.8481 16.1875 28.5C16.1875 28.1519 16.3258 27.8181 16.5719 27.5719C16.8181 27.3258 17.1519 27.1875 17.5 27.1875H21C21.3481 27.1875 21.6819 27.3258 21.9281 27.5719C22.1742 27.8181 22.3125 28.1519 22.3125 28.5C22.3125 28.8481 22.1742 29.1819 21.9281 29.4281C21.6819 29.6742 21.3481 29.8125 21 29.8125H17.5ZM26.6875 28.5C26.6875 28.1519 26.8258 27.8181 27.0719 27.5719C27.3181 27.3258 27.6519 27.1875 28 27.1875H31.5C31.8481 27.1875 32.1819 27.3258 32.4281 27.5719C32.6742 27.8181 32.8125 28.1519 32.8125 28.5C32.8125 28.8481 32.6742 29.1819 32.4281 29.4281C32.1819 29.6742 31.8481 29.8125 31.5 29.8125H28C27.6519 29.8125 27.3181 29.6742 27.0719 29.4281C26.8258 29.1819 26.6875 28.8481 26.6875 28.5Z" fill="black"/>
</svg>
