<svg width="47" height="46" viewBox="0 0 47 46" fill="none" xmlns="http://www.w3.org/2000/svg">
<path d="M19.3456 7.55144C21.2816 4.19783 24.4705 1.75064 28.2108 0.748223C31.9511 -0.254197 35.9364 0.270269 39.29 2.20624C42.6436 4.14222 45.0908 7.33112 46.0932 11.0714C47.0956 14.8117 46.5712 18.797 44.6352 22.1506L44.0836 23.1026C43.8979 23.4242 43.5921 23.6588 43.2335 23.7549C42.8749 23.851 42.4927 23.8007 42.1712 23.615L32.4692 18.015L27.0624 27.479C30.8144 28.6186 34.04 31.2086 36.3444 34.5574L36.0924 34.549C35.1612 34.5448 34.2551 34.8502 33.5164 35.417C30.8284 31.9086 26.9756 29.649 22.8092 29.649C18.6428 29.649 14.79 31.9086 12.102 35.417C11.2946 34.7973 10.2897 34.4919 9.27398 34.5574C12.41 29.999 17.2456 26.849 22.8092 26.849C23.2646 26.849 23.7154 26.8696 24.1616 26.9106L30.0444 16.615L19.3092 10.413C18.9876 10.2274 18.753 9.9216 18.6569 9.56296C18.5608 9.20432 18.6111 8.82219 18.7968 8.50064L19.3456 7.55144ZM21.9244 8.69384L26.6928 11.4462L26.7236 11.3986C28.2244 9.32664 29.6356 7.73344 31.4808 6.33624C32.8589 5.31727 34.3353 4.43838 35.888 3.71264C33.3416 2.82263 30.5673 2.83152 28.0267 3.73782C25.4861 4.64412 23.3325 6.39316 21.9244 8.69384ZM35.4204 16.4834C36.7224 14.1986 37.3468 12.3954 37.5652 10.6454C37.7416 9.23704 37.6632 7.80344 37.4 6.09264C35.6388 6.92704 34.3032 7.71104 33.172 8.56784C31.6712 9.70464 30.4756 11.0122 29.1288 12.8518L35.4204 16.4834ZM37.8452 17.8834L42.356 20.4874C43.5787 18.2385 44.0372 15.653 43.6625 13.1208C43.2878 10.5885 42.1 8.24667 40.2784 6.44824C40.4772 8.01624 40.5304 9.49464 40.3428 10.9954C40.0656 13.2074 39.2788 15.369 37.8452 17.8834ZM10.8756 38.3094C10.7796 38.0214 10.5926 37.7724 10.3428 37.5999C10.093 37.4274 9.79386 37.3407 9.49051 37.3531C9.18716 37.3654 8.89604 37.476 8.66103 37.6682C8.42601 37.8604 8.25985 38.1238 8.18758 38.4186C7.71158 40.3618 6.80998 41.4286 5.78238 42.0502C4.70718 42.697 3.33798 42.949 1.80918 42.949C1.43788 42.949 1.08178 43.0965 0.81923 43.3591C0.556679 43.6216 0.40918 43.9777 0.40918 44.349C0.40918 44.7203 0.556679 45.0764 0.81923 45.339C1.08178 45.6015 1.43788 45.749 1.80918 45.749C3.59558 45.749 5.54158 45.4634 7.22998 44.447C8.23643 43.8391 9.08463 43.0014 9.70518 42.0026C13.0456 46.2614 19.5668 46.2418 22.8092 41.9578C26.1048 46.309 32.7772 46.2614 36.0672 41.7982C36.9608 43.0142 38.1261 44.0047 39.4702 44.6906C40.8144 45.3765 42.3002 45.739 43.8092 45.749C44.1805 45.749 44.5366 45.6015 44.7991 45.339C45.0617 45.0764 45.2092 44.7203 45.2092 44.349C45.2092 43.9777 45.0617 43.6216 44.7991 43.3591C44.5366 43.0965 44.1805 42.949 43.8092 42.949C41.0568 42.949 38.3128 41.157 37.4056 38.3234C37.315 38.0429 37.1381 37.798 36.9002 37.6239C36.6623 37.4497 36.3755 37.3551 36.0806 37.3536C35.7858 37.352 35.498 37.4436 35.2583 37.6152C35.0185 37.7869 34.8391 38.0298 34.7456 38.3094C32.9452 43.7386 25.8976 43.6686 24.1336 38.5334C24.039 38.2574 23.8605 38.0178 23.623 37.8481C23.3855 37.6785 23.101 37.5873 22.8092 37.5873C22.5173 37.5873 22.2328 37.6785 21.9953 37.8481C21.7579 38.0178 21.5794 38.2574 21.4848 38.5334C19.7208 43.6686 12.676 43.7386 10.8756 38.3094Z" fill="black"/>
</svg>
